<svg xmlns="http://www.w3.org/2000/svg" width="122" height="122" viewBox="0 0 122 122">
  <g id="google" transform="translate(-2060 -5486)">
    <g id="Ellipse_1" data-name="Ellipse 1" transform="translate(2060 5486)" fill="none" stroke="#fff" stroke-width="3">
      <circle cx="61" cy="61" r="61" stroke="none"/>
      <circle cx="61" cy="61" r="59.5" fill="none"/>
    </g>
    <g id="google-plus" transform="translate(2085 5428)">
      <g id="Group_6" data-name="Group 6" transform="translate(49.5 105)">
        <g id="Group_5" data-name="Group 5">
          <path id="Path_3" data-name="Path 3" d="M365.5,169v-9H361v9h-9v4.5h9v9h4.5v-9h9V169Z" transform="translate(-352 -160)" fill="#db1f23"/>
        </g>
      </g>
      <g id="Group_8" data-name="Group 8" transform="translate(0 96)">
        <g id="Group_7" data-name="Group 7">
          <path id="Path_4" data-name="Path 4" d="M22.5,114v9H35.231A13.5,13.5,0,1,1,22.5,105a13.3,13.3,0,0,1,8.744,3.258l5.913-6.786A22.3,22.3,0,0,0,22.5,96,22.5,22.5,0,1,0,45,118.5V114Z" transform="translate(0 -96)" fill="#db1f23"/>
        </g>
      </g>
    </g>
  </g>
</svg>
